<svg xmlns="http://www.w3.org/2000/svg" width="145" height="145" fill="none" xmlns:v="https://vecta.io/nano"><path d="M69.572 75.065l.026-.02.026-.02.301-.235.41.767h-1.45l.686-.493zm29.616.493l.185-.316.185.316h-.37zm32.528 19.5c0-6.427-3.109-12.127-7.905-15.68 1.2-.464 2.285-1.177 3.2-2.091 1.7-1.7 2.704-3.992 2.704-6.509V29.79c0-2.517-1.004-4.809-2.704-6.509s-3.992-2.704-6.509-2.704h-13.071c-2.517 0-4.809 1.004-6.509 2.704-.611.611-1.132 1.299-1.549 2.046a9.31 9.31 0 0 0-1.549-2.046c-1.7-1.7-3.992-2.704-6.509-2.704H78.245c-2.517 0-4.809 1.004-6.509 2.704-.82.82-1.479 1.778-1.94 2.833-.281-.24-.571-.474-.872-.701-4.773-3.678-11.185-4.836-17.81-4.836H25.606c-2.517 0-4.809 1.004-6.509 2.704s-2.704 3.992-2.704 6.509v40.988c0 2.517 1.004 4.809 2.704 6.509.735.735 1.581 1.34 2.508 1.79-5.032 3.526-8.322 9.369-8.322 15.98v9.864c0 10.77 8.731 19.5 19.5 19.5h79.432c10.77 0 19.5-8.73 19.5-19.5v-9.864z" fill="#212121" stroke="#212121" stroke-width="15"/><g fill="#fff"><circle cx="36.915" cy="99.575" r="4.94"/><circle cx="50.233" cy="99.575" r="4.94"/><circle cx="63.551" cy="99.575" r="4.94"/><path fill-rule="evenodd" d="M20.784 94.644c0-6.628 5.373-12 12-12h79.432c6.627 0 12 5.372 12 12v9.864c0 6.627-5.373 12-12 12H32.784c-6.627 0-12-5.373-12-12v-9.864zm5 0a7 7 0 0 1 7-7h79.432a7 7 0 0 1 7 7v9.864a7 7 0 0 1-7 7H32.784a7 7 0 0 1-7-7v-9.864z"/><path d="M63.613 48.918c1.65.508 3.067 1.629 4.251 3.363 1.184 1.692 1.777 3.638 1.777 5.837 0 4.695-1.523 8.206-4.568 10.533-3.045 2.284-7.487 3.426-13.324 3.426H25.606c-.465 0-.867-.169-1.206-.508s-.508-.74-.508-1.206V29.376c0-.465.169-.867.508-1.205s.74-.508 1.206-.508h25.507c6.007 0 10.427 1.1 13.261 3.299 2.876 2.157 4.314 5.436 4.314 9.835v.19c0 2.03-.55 3.765-1.65 5.203s-2.242 2.348-3.426 2.728zm-12.119-7.55c0-.761-.233-1.417-.698-1.967-.423-.55-1.057-.825-1.903-.825H40.39v5.774h8.502c.846 0 1.48-.296 1.903-.888a3.46 3.46 0 0 0 .698-2.094zM49.59 61.164c.973 0 1.692-.317 2.157-.952a3.62 3.62 0 0 0 .761-2.221v-.063c0-.804-.275-1.502-.825-2.094-.508-.592-1.206-.888-2.094-.888h-9.2v6.218h9.2zm70.912-33.501c.465 0 .867.169 1.205.508s.508.74.508 1.205v40.988c0 .465-.169.867-.508 1.206s-.74.508-1.205.508h-13.071c-.465 0-.867-.169-1.205-.508s-.508-.74-.508-1.206V56.849h-12.69v13.515c0 .465-.169.867-.508 1.206s-.74.508-1.206.508H78.245a1.77 1.77 0 0 1-1.206-.444 1.72 1.72 0 0 1-.508-1.269V29.376c0-.465.169-.867.508-1.205s.74-.508 1.206-.508h13.071c.465 0 .867.169 1.206.508s.508.74.508 1.205v13.007h12.69V29.376c0-.465.169-.867.508-1.205s.74-.508 1.205-.508h13.071z"/></g></svg>